<svg width="61" height="61" viewBox="0 0 61 61" fill="none" xmlns="http://www.w3.org/2000/svg">
<path d="M44.0358 23.6693C43.8026 23.4356 43.5256 23.2502 43.2207 23.1237C42.9157 22.9972 42.5888 22.9321 42.2587 22.9321C41.9285 22.9321 41.6016 22.9972 41.2966 23.1237C40.9917 23.2502 40.7147 23.4356 40.4815 23.6693L30.7006 33.4502L20.9198 23.6693C20.4485 23.198 19.8092 22.9332 19.1426 22.9332C18.476 22.9332 17.8368 23.198 17.3654 23.6693C16.8941 24.1407 16.6293 24.7799 16.6293 25.4465C16.6293 26.1131 16.8941 26.7524 17.3654 27.2237L28.936 38.7943C29.1693 39.028 29.4463 39.2134 29.7512 39.3399C30.0562 39.4664 30.3831 39.5315 30.7132 39.5315C31.0434 39.5315 31.3703 39.4664 31.6752 39.3399C31.9802 39.2134 32.2572 39.028 32.4904 38.7943L44.0611 27.2237C45.019 26.2658 45.019 24.6525 44.0358 23.6693Z" fill="#9E9E9E"/>
</svg>
