<svg width="62" height="62" viewBox="0 0 62 62" fill="none" xmlns="http://www.w3.org/2000/svg">
<path d="M24.3192 17.7649C24.0855 17.9982 23.9001 18.2752 23.7736 18.5801C23.6471 18.8851 23.582 19.212 23.582 19.5421C23.582 19.8723 23.6471 20.1992 23.7736 20.5041C23.9001 20.8091 24.0855 21.0861 24.3192 21.3193L34.1001 31.1001L24.3192 40.881C23.8479 41.3523 23.5831 41.9916 23.5831 42.6582C23.5831 43.3247 23.8479 43.964 24.3192 44.4354C24.7906 44.9067 25.4298 45.1715 26.0964 45.1715C26.763 45.1715 27.4023 44.9067 27.8736 44.4354L39.4442 32.8647C39.6779 32.6315 39.8633 32.3545 39.9898 32.0496C40.1163 31.7446 40.1814 31.4177 40.1814 31.0875C40.1814 30.7574 40.1163 30.4305 39.9898 30.1255C39.8633 29.8206 39.6779 29.5436 39.4442 29.3104L27.8736 17.7397C26.9157 16.7818 25.3024 16.7818 24.3192 17.7649Z" fill="#9E9E9E"/>
</svg>
