<svg width="137" height="80" viewBox="0 0 137 80" fill="none" xmlns="http://www.w3.org/2000/svg">
<mask id="path-1-outside-1_754_3120" maskUnits="userSpaceOnUse" x="-0.860534" y="-4.29023" width="172.562" height="99.4466" fill="black">
<rect fill="white" x="-0.860534" y="-4.29023" width="172.562" height="99.4466"/>
<path fill-rule="evenodd" clip-rule="evenodd" d="M69.0257 22.4072L70.9772 29.7359C69.7503 30.4859 68.5653 31.311 67.4286 32.2081C65.2792 33.9044 63.3264 35.8392 61.6025 37.9743L54.8647 34.0475C53.9118 33.4922 52.6941 33.8205 52.1449 34.7808L45.0719 47.1472C44.5227 48.1075 44.8499 49.3362 45.8027 49.8915L53.0594 54.1207L31.3234 59.9813C30.0419 58.2689 27.8157 57.4175 25.6366 58.005C22.769 58.7782 21.069 61.7506 21.8394 64.6441C22.6099 67.5375 25.5592 69.2564 28.4268 68.4832C30.3487 67.965 31.7462 66.459 32.2269 64.651L53.288 58.9724L56.2869 58.1639L63.9663 56.0933C64.352 53.5103 66.2089 51.2772 68.8703 50.5596C72.4548 49.5932 76.1414 51.7417 77.1045 55.3585C78.0676 58.9754 75.9426 62.6909 72.358 63.6573C69.9557 64.3051 67.5075 63.5536 65.864 61.8988L53.2859 65.2901L43.5615 67.9121L43.5577 67.9131C42.4935 68.2022 41.8612 69.2993 42.1451 70.3654L43.1999 74.3267L22.0533 80.0283C20.7718 78.316 18.5456 77.4646 16.3665 78.0521C13.4989 78.8253 11.7989 81.7977 12.5693 84.6911C13.3398 87.5846 16.2891 89.3034 19.1567 88.5303C21.0786 88.0121 22.4761 86.5061 22.9568 84.698L44.4206 78.9109L45.6498 83.5271C45.9341 84.5945 47.029 85.2267 48.0955 84.9391L136.397 61.131C137.463 60.8435 138.097 59.7451 137.813 58.6777L136.584 54.0615L158.379 48.1849C159.661 49.8972 161.887 50.7486 164.066 50.1611C166.934 49.3879 168.634 46.4155 167.863 43.5221C167.093 40.6286 164.144 38.9098 161.276 39.6829C159.354 40.2011 157.957 41.7071 157.476 43.5152L135.363 49.4773L134.308 45.516C134.024 44.4499 132.932 43.8179 131.866 44.103L131.863 44.104L123.436 46.3759L110.209 49.9423C109.608 52.2023 107.861 54.0848 105.459 54.7326C101.874 55.699 98.1878 53.5505 97.2247 49.9337C96.2616 46.3168 98.3866 42.6013 101.971 41.6348C104.633 40.9173 107.35 41.9169 108.968 43.9598L120.295 40.9057L141.688 35.1377C142.97 36.85 145.196 37.7014 147.375 37.1139C150.242 36.3407 151.943 33.3683 151.172 30.4748C150.402 27.5814 147.452 25.8625 144.585 26.6357C142.663 27.1539 141.265 28.6599 140.785 30.4679L117.098 36.8544C117.032 36.781 116.965 36.7079 116.898 36.6351L121.371 28.8145C121.92 27.8542 121.593 26.6256 120.64 26.0703L108.37 18.9192C107.417 18.3639 106.2 18.6922 105.65 19.6525L101.705 26.5516C99.4471 25.7548 97.1184 25.1811 94.7499 24.8416C92.6274 24.5373 90.4912 24.4239 88.3651 24.4998L86.5497 17.6823C86.2655 16.615 85.1705 15.9828 84.104 16.2704L70.4421 19.9539C69.3757 20.2415 68.7415 21.3399 69.0257 22.4072ZM71.7104 61.2254C69.4571 61.8329 67.1395 60.4823 66.5341 58.2086C65.9286 55.9349 67.2645 53.5992 69.5179 52.9916C71.7713 52.3841 74.0888 53.7347 74.6943 56.0084C75.2997 58.2821 73.9638 60.6178 71.7104 61.2254ZM107.795 47.0836C107.19 44.8099 104.872 43.4593 102.619 44.0668C100.365 44.6744 99.0295 47.0101 99.6349 49.2838C100.24 51.5575 102.558 52.9082 104.811 52.3006C107.065 51.693 108.401 49.3573 107.795 47.0836ZM26.3184 60.5651C27.7847 60.1698 29.2928 61.0487 29.6868 62.5282C30.0808 64.0078 29.2115 65.5277 27.7451 65.9231C26.2788 66.3185 24.7707 65.4396 24.3767 63.96C23.9827 62.4804 24.852 60.9605 26.3184 60.5651ZM20.4167 82.5753C20.0227 81.0957 18.5146 80.2168 17.0483 80.6122C15.5819 81.0075 14.7126 82.5275 15.1066 84.007C15.5006 85.4866 17.0087 86.3655 18.475 85.9702C19.9414 85.5748 20.8107 84.0549 20.4167 82.5753ZM163.384 47.601C161.918 47.9964 160.41 47.1175 160.016 45.6379C159.622 44.1583 160.491 42.6384 161.958 42.243C163.424 41.8477 164.932 42.7266 165.326 44.2062C165.72 45.6857 164.851 47.2057 163.384 47.601ZM143.325 32.5907C143.719 34.0702 145.227 34.9492 146.693 34.5538C148.159 34.1584 149.029 32.6385 148.635 31.1589C148.241 29.6794 146.733 28.8004 145.266 29.1958C143.8 29.5912 142.931 31.1111 143.325 32.5907Z"/>
</mask>
<path d="M70.9772 29.7359L71.4961 30.5897L72.1354 30.199L71.9428 29.4755L70.9772 29.7359ZM69.0257 22.4072L68.0602 22.6676L68.0602 22.6676L69.0257 22.4072ZM67.4286 32.2081L68.0458 32.9935L68.0458 32.9935L67.4286 32.2081ZM61.6025 37.9743L61.0983 38.8397L61.8388 39.2713L62.3789 38.6023L61.6025 37.9743ZM54.8647 34.0475L54.3604 34.9128L54.3604 34.9128L54.8647 34.0475ZM52.1449 34.7808L53.0116 35.2765L53.0116 35.2765L52.1449 34.7808ZM45.0719 47.1472L44.2052 46.6515L44.2052 46.6515L45.0719 47.1472ZM45.8027 49.8915L45.2984 50.7568L45.2984 50.7568L45.8027 49.8915ZM53.0594 54.1207L53.3167 55.087L55.6344 54.4622L53.5637 53.2554L53.0594 54.1207ZM31.3234 59.9813L30.5233 60.5829L30.928 61.1236L31.5808 60.9476L31.3234 59.9813ZM32.2269 64.651L31.9696 63.6847L31.4104 63.8354L31.2614 64.3959L32.2269 64.651ZM53.288 58.9724L53.5453 59.9387L53.5453 59.9387L53.288 58.9724ZM56.2869 58.1639L56.0296 57.1975L56.0296 57.1975L56.2869 58.1639ZM63.9663 56.0933L64.2236 57.0596L64.8575 56.8887L64.9546 56.2387L63.9663 56.0933ZM65.864 61.8988L66.5734 61.192L66.1659 60.7817L65.6067 60.9324L65.864 61.8988ZM53.2859 65.2901L53.0286 64.3238L53.0286 64.3238L53.2859 65.2901ZM43.5615 67.9121L43.3042 66.9457L43.3032 66.946L43.5615 67.9121ZM43.5577 67.9131L43.2994 66.947L43.2985 66.9473L43.5577 67.9131ZM42.1451 70.3654L41.1796 70.6257L42.1451 70.3654ZM43.1999 74.3267L43.4572 75.293L44.4228 75.0327L44.1654 74.0664L43.1999 74.3267ZM22.0533 80.0283L21.2532 80.6299L21.6579 81.1706L22.3107 80.9946L22.0533 80.0283ZM22.9568 84.698L22.6995 83.7317L22.1403 83.8825L21.9913 84.4429L22.9568 84.698ZM44.4206 78.9109L45.3861 78.6506L45.1288 77.6842L44.1633 77.9446L44.4206 78.9109ZM45.6498 83.5271L46.6154 83.2668L45.6498 83.5271ZM48.0955 84.9391L47.8382 83.9728L48.0955 84.9391ZM136.397 61.131L136.654 62.0974L136.397 61.131ZM137.813 58.6777L136.847 58.938L136.847 58.938L137.813 58.6777ZM136.584 54.0615L136.326 53.0952L135.361 53.3555L135.618 54.3218L136.584 54.0615ZM158.379 48.1849L159.179 47.5833L158.775 47.0426L158.122 47.2186L158.379 48.1849ZM161.276 39.6829L161.533 40.6493L161.533 40.6493L161.276 39.6829ZM157.476 43.5152L157.733 44.4815L158.292 44.3307L158.441 43.7703L157.476 43.5152ZM135.363 49.4773L134.398 49.7376L134.655 50.704L135.62 50.4436L135.363 49.4773ZM134.308 45.516L135.274 45.2557L135.274 45.2557L134.308 45.516ZM131.866 44.103L131.611 43.1361L131.61 43.1364L131.866 44.103ZM131.863 44.104L131.606 43.1374L131.605 43.1377L131.863 44.104ZM123.436 46.3759L123.179 45.4096L123.179 45.4096L123.436 46.3759ZM110.209 49.9423L109.952 48.976L109.393 49.1267L109.243 49.6872L110.209 49.9423ZM108.968 43.9598L108.184 44.5829L108.591 45.0971L109.225 44.9261L108.968 43.9598ZM120.295 40.9057L120.552 41.872L120.552 41.872L120.295 40.9057ZM141.688 35.1377L142.488 34.536L142.083 33.9953L141.431 34.1713L141.688 35.1377ZM140.785 30.4679L141.042 31.4343L141.601 31.2835L141.75 30.7231L140.785 30.4679ZM117.098 36.8544L116.356 37.527L116.765 37.9798L117.355 37.8207L117.098 36.8544ZM116.898 36.6351L116.031 36.1394L115.668 36.7752L116.162 37.3133L116.898 36.6351ZM121.371 28.8145L122.238 29.3102L122.238 29.3102L121.371 28.8145ZM120.64 26.0703L120.136 26.9356L120.136 26.9356L120.64 26.0703ZM108.37 18.9192L107.866 19.7846L107.866 19.7846L108.37 18.9192ZM105.65 19.6525L106.517 20.1482L106.517 20.1482L105.65 19.6525ZM101.705 26.5516L101.37 27.4956L102.156 27.773L102.571 27.0473L101.705 26.5516ZM94.7499 24.8416L94.6057 25.8323L94.6057 25.8323L94.7499 24.8416ZM88.3651 24.4998L87.3996 24.7601L87.6041 25.5282L88.398 25.4999L88.3651 24.4998ZM145.266 29.1958L145.524 30.1621L145.524 30.1621L145.266 29.1958ZM71.9428 29.4755L69.9912 22.1469L68.0602 22.6676L70.0117 29.9962L71.9428 29.4755ZM68.0458 32.9935C69.1511 32.1212 70.3033 31.3189 71.4961 30.5897L70.4584 28.882C69.1973 29.6528 67.9795 30.5009 66.8115 31.4226L68.0458 32.9935ZM62.3789 38.6023C64.0561 36.5249 65.9556 34.643 68.0458 32.9935L66.8115 31.4226C64.6028 33.1658 62.5967 35.1535 60.8262 37.3463L62.3789 38.6023ZM54.3604 34.9128L61.0983 38.8397L62.1068 37.109L55.3689 33.1822L54.3604 34.9128ZM53.0116 35.2765C53.2846 34.7991 53.8867 34.6368 54.3604 34.9128L55.3689 33.1822C53.9369 32.3476 52.1036 32.8419 51.2782 34.2851L53.0116 35.2765ZM45.9386 47.6429L53.0116 35.2765L51.2782 34.2851L44.2052 46.6515L45.9386 47.6429ZM46.307 49.0262C45.8278 48.7469 45.6624 48.1258 45.9386 47.6429L44.2052 46.6515C43.3829 48.0892 43.8719 49.9255 45.2984 50.7568L46.307 49.0262ZM53.5637 53.2554L46.307 49.0262L45.2984 50.7568L52.5551 54.9861L53.5637 53.2554ZM31.5808 60.9476L53.3167 55.087L52.8021 53.1544L31.0661 59.0149L31.5808 60.9476ZM25.894 58.9714C27.6616 58.4947 29.4755 59.1828 30.5233 60.5829L32.1236 59.3796C30.6083 57.355 27.9698 56.3403 25.3793 57.0387L25.894 58.9714ZM22.805 64.3838C22.1746 62.0165 23.567 59.5988 25.894 58.9714L25.3793 57.0387C21.9711 57.9576 19.9633 61.4847 20.8739 64.9044L22.805 64.3838ZM28.1695 67.5169C25.8425 68.1443 23.4353 66.751 22.805 64.3838L20.8739 64.9044C21.7845 68.3241 25.2759 70.3685 28.6841 69.4495L28.1695 67.5169ZM31.2614 64.3959C30.8683 65.8742 29.7289 67.0964 28.1695 67.5169L28.6841 69.4495C30.9685 68.8336 32.624 67.0438 33.1925 64.9061L31.2614 64.3959ZM53.0307 58.0061L31.9696 63.6847L32.4843 65.6173L53.5453 59.9387L53.0307 58.0061ZM56.0296 57.1975L53.0307 58.0061L53.5453 59.9387L56.5442 59.1302L56.0296 57.1975ZM63.709 55.127L56.0296 57.1975L56.5442 59.1302L64.2236 57.0596L63.709 55.127ZM68.613 49.5933C65.5496 50.4193 63.42 52.9881 62.9781 55.9479L64.9546 56.2387C65.2839 54.0325 66.8681 52.1352 69.1276 51.526L68.613 49.5933ZM78.0701 55.0982C76.9668 50.9551 72.7382 48.4811 68.613 49.5933L69.1276 51.526C72.1715 50.7052 75.316 52.5283 76.139 55.6189L78.0701 55.0982ZM72.6154 64.6237C76.7405 63.5114 79.1733 59.2413 78.0701 55.0982L76.139 55.6189C76.962 58.7094 75.1446 61.8703 72.1007 62.691L72.6154 64.6237ZM65.1546 62.6055C67.0379 64.5018 69.8505 65.3691 72.6154 64.6237L72.1007 62.691C70.0608 63.241 67.9771 62.6055 66.5734 61.192L65.1546 62.6055ZM53.5432 66.2565L66.1214 62.8651L65.6067 60.9324L53.0286 64.3238L53.5432 66.2565ZM43.8188 68.8784L53.5432 66.2565L53.0286 64.3238L43.3042 66.9457L43.8188 68.8784ZM43.8159 68.8792L43.8197 68.8781L43.3032 66.946L43.2994 66.947L43.8159 68.8792ZM43.1106 70.105C42.9687 69.572 43.2848 69.0235 43.8169 68.8789L43.2985 66.9473C41.7022 67.381 40.7537 69.0265 41.1796 70.6257L43.1106 70.105ZM44.1654 74.0664L43.1106 70.105L41.1796 70.6257L42.2344 74.587L44.1654 74.0664ZM22.3107 80.9946L43.4572 75.293L42.9426 73.3604L21.796 79.062L22.3107 80.9946ZM16.6239 79.0184C18.3915 78.5418 20.2054 79.2299 21.2532 80.6299L22.8535 79.4267C21.3382 77.4021 18.6997 76.3873 16.1092 77.0858L16.6239 79.0184ZM13.5349 84.4308C12.9045 82.0636 14.2969 79.6458 16.6239 79.0184L16.1092 77.0858C12.701 78.0047 10.6932 81.5317 11.6038 84.9515L13.5349 84.4308ZM18.8994 87.5639C16.5724 88.1913 14.1652 86.798 13.5349 84.4308L11.6038 84.9515C12.5144 88.3712 16.0058 90.4155 19.414 89.4966L18.8994 87.5639ZM21.9913 84.4429C21.5982 85.9212 20.4588 87.1435 18.8994 87.5639L19.414 89.4966C21.6984 88.8807 23.3539 87.0909 23.9223 84.9532L21.9913 84.4429ZM44.1633 77.9446L22.6995 83.7317L23.2141 85.6644L44.6779 79.8772L44.1633 77.9446ZM46.6154 83.2668L45.3861 78.6506L43.4551 79.1712L44.6843 83.7874L46.6154 83.2668ZM47.8382 83.9728C47.305 84.1165 46.7575 83.8005 46.6154 83.2668L44.6843 83.7874C45.1107 85.3885 46.7531 86.3368 48.3528 85.9054L47.8382 83.9728ZM136.139 60.1647L47.8382 83.9728L48.3528 85.9054L136.654 62.0974L136.139 60.1647ZM136.847 58.938C136.99 59.4717 136.673 60.0209 136.139 60.1647L136.654 62.0974C138.254 61.666 139.205 60.0185 138.779 58.4174L136.847 58.938ZM135.618 54.3218L136.847 58.938L138.779 58.4174L137.549 53.8012L135.618 54.3218ZM158.122 47.2186L136.326 53.0952L136.841 55.0278L158.637 49.1512L158.122 47.2186ZM163.809 49.1948C162.041 49.6714 160.227 48.9833 159.179 47.5833L157.579 48.7865C159.095 50.8111 161.733 51.8259 164.323 51.1274L163.809 49.1948ZM166.898 43.7824C167.528 46.1496 166.136 48.5674 163.809 49.1948L164.323 51.1274C167.732 50.2085 169.74 46.6815 168.829 43.2617L166.898 43.7824ZM161.533 40.6493C163.86 40.0219 166.267 41.4152 166.898 43.7824L168.829 43.2617C167.918 39.842 164.427 37.7977 161.019 38.7166L161.533 40.6493ZM158.441 43.7703C158.835 42.292 159.974 41.0697 161.533 40.6493L161.019 38.7166C158.734 39.3325 157.079 41.1223 156.51 43.26L158.441 43.7703ZM135.62 50.4436L157.733 44.4815L157.219 42.5488L135.106 48.511L135.62 50.4436ZM133.343 45.7763L134.398 49.7376L136.329 49.217L135.274 45.2557L133.343 45.7763ZM132.122 45.0698C132.654 44.9273 133.201 45.2433 133.343 45.7763L135.274 45.2557C134.848 43.6565 133.209 42.7086 131.611 43.1361L132.122 45.0698ZM132.119 45.0706L132.123 45.0695L131.61 43.1364L131.606 43.1374L132.119 45.0706ZM123.694 47.3423L132.12 45.0703L131.605 43.1377L123.179 45.4096L123.694 47.3423ZM110.466 50.9086L123.694 47.3423L123.179 45.4096L109.952 48.976L110.466 50.9086ZM105.716 55.6989C108.481 54.9534 110.486 52.7872 111.175 50.1974L109.243 49.6872C108.73 51.6175 107.241 53.2162 105.202 53.7662L105.716 55.6989ZM96.2591 50.194C97.3624 54.3371 101.591 56.8111 105.716 55.6989L105.202 53.7662C102.158 54.5869 99.0132 52.7639 98.1902 49.6733L96.2591 50.194ZM101.714 40.6685C97.5887 41.7808 95.1559 46.0509 96.2591 50.194L98.1902 49.6733C97.3672 46.5828 99.1846 43.4219 102.228 42.6012L101.714 40.6685ZM109.751 43.3367C107.898 40.9958 104.777 39.8426 101.714 40.6685L102.228 42.6012C104.488 41.992 106.803 42.838 108.184 44.5829L109.751 43.3367ZM120.038 39.9394L108.71 42.9935L109.225 44.9261L120.552 41.872L120.038 39.9394ZM120.552 41.872L141.945 36.104L141.431 34.1713L120.038 39.9394L120.552 41.872ZM140.888 35.7393C142.403 37.7639 145.042 38.7787 147.632 38.0802L147.118 36.1476C145.35 36.6242 143.536 35.9361 142.488 34.536L140.888 35.7393ZM147.632 38.0802C151.04 37.1613 153.048 33.6342 152.138 30.2145L150.207 30.7352C150.837 33.1024 149.444 35.5202 147.118 36.1476L147.632 38.0802ZM152.138 30.2145C151.227 26.7948 147.736 24.7504 144.327 25.6694L144.842 27.602C147.169 26.9746 149.576 28.368 150.207 30.7352L152.138 30.2145ZM144.327 25.6694C142.043 26.2853 140.387 28.0751 139.819 30.2128L141.75 30.7231C142.143 29.2447 143.283 28.0225 144.842 27.602L144.327 25.6694ZM140.527 29.5016L116.841 35.8881L117.355 37.8207L141.042 31.4343L140.527 29.5016ZM116.162 37.3133C116.227 37.3842 116.292 37.4555 116.356 37.527L117.84 36.1818C117.772 36.1066 117.703 36.0316 117.635 35.9568L116.162 37.3133ZM120.504 28.3189L116.031 36.1394L117.765 37.1307L122.238 29.3102L120.504 28.3189ZM120.136 26.9356C120.615 27.2149 120.781 27.836 120.504 28.3189L122.238 29.3102C123.06 27.8725 122.571 26.0363 121.145 25.2049L120.136 26.9356ZM107.866 19.7846L120.136 26.9356L121.145 25.2049L108.874 18.0539L107.866 19.7846ZM106.517 20.1482C106.79 19.6708 107.392 19.5085 107.866 19.7846L108.874 18.0539C107.442 17.2193 105.609 17.7136 104.784 19.1569L106.517 20.1482ZM102.571 27.0473L106.517 20.1482L104.784 19.1569L100.838 26.0559L102.571 27.0473ZM94.6057 25.8323C96.9089 26.1624 99.1739 26.7204 101.37 27.4956L102.039 25.6076C99.7202 24.7892 97.3279 24.1997 94.8941 23.8509L94.6057 25.8323ZM88.398 25.4999C90.4648 25.4261 92.5417 25.5364 94.6057 25.8323L94.8941 23.8509C92.713 23.5383 90.5176 23.4216 88.3322 23.4996L88.398 25.4999ZM85.5842 17.9427L87.3996 24.7601L89.3306 24.2394L87.5152 17.422L85.5842 17.9427ZM84.3614 17.2367C84.8946 17.0929 85.4421 17.409 85.5842 17.9427L87.5152 17.422C87.0889 15.821 85.4464 14.8727 83.8467 15.304L84.3614 17.2367ZM70.6995 20.9203L84.3614 17.2367L83.8467 15.304L70.1848 18.9876L70.6995 20.9203ZM69.9912 22.1469C69.8491 21.6132 70.1662 21.064 70.6995 20.9203L70.1848 18.9876C68.5851 19.4189 67.6339 21.0665 68.0602 22.6676L69.9912 22.1469ZM65.5686 58.4689C66.3141 61.2689 69.1737 62.945 71.9678 62.1917L71.4531 60.259C69.7404 60.7208 67.9649 59.6957 67.4996 57.9483L65.5686 58.4689ZM69.2606 52.0253C66.4666 52.7786 64.823 55.669 65.5686 58.4689L67.4996 57.9483C67.0343 56.2008 68.0625 54.4197 69.7752 53.9579L69.2606 52.0253ZM75.6598 55.7481C74.9142 52.9481 72.0546 51.272 69.2606 52.0253L69.7752 53.9579C71.488 53.4961 73.2634 54.5213 73.7288 56.2687L75.6598 55.7481ZM71.9678 62.1917C74.7618 61.4384 76.4054 58.548 75.6598 55.7481L73.7288 56.2687C74.1941 58.0161 73.1659 59.7972 71.4531 60.259L71.9678 62.1917ZM102.876 45.0332C104.589 44.5714 106.364 45.5965 106.83 47.3439L108.761 46.8233C108.015 44.0233 105.155 42.3472 102.361 43.1005L102.876 45.0332ZM100.6 49.0235C100.135 47.276 101.163 45.495 102.876 45.0332L102.361 43.1005C99.5674 43.8538 97.9238 46.7442 98.6694 49.5441L100.6 49.0235ZM104.554 51.3343C102.841 51.7961 101.066 50.7709 100.6 49.0235L98.6694 49.5441C99.415 52.3441 102.275 54.0202 105.069 53.2669L104.554 51.3343ZM106.83 47.3439C107.295 49.0914 106.267 50.8725 104.554 51.3343L105.069 53.2669C107.863 52.5136 109.506 49.6232 108.761 46.8233L106.83 47.3439ZM30.6523 62.2679C30.1182 60.2621 28.068 59.0577 26.061 59.5988L26.5757 61.5314C27.5014 61.2819 28.4674 61.8353 28.7213 62.7886L30.6523 62.2679ZM28.0024 66.8894C30.0094 66.3483 31.1864 64.2737 30.6523 62.2679L28.7213 62.7886C28.9751 63.7419 28.4135 64.7072 27.4878 64.9568L28.0024 66.8894ZM23.4111 64.2203C23.9453 66.2261 25.9954 67.4306 28.0024 66.8894L27.4878 64.9568C26.5621 65.2064 25.596 64.653 25.3422 63.6997L23.4111 64.2203ZM26.061 59.5988C24.0541 60.1399 22.877 62.2145 23.4111 64.2203L25.3422 63.6997C25.0883 62.7463 25.65 61.781 26.5757 61.5314L26.061 59.5988ZM17.3056 81.5785C18.2313 81.3289 19.1973 81.8823 19.4512 82.8356L21.3822 82.315C20.8481 80.3091 18.7979 79.1047 16.7909 79.6458L17.3056 81.5785ZM16.0721 83.7467C15.8182 82.7934 16.3799 81.8281 17.3056 81.5785L16.7909 79.6458C14.7839 80.187 13.6069 82.2615 14.141 84.2674L16.0721 83.7467ZM18.2177 85.0038C17.292 85.2534 16.3259 84.7 16.0721 83.7467L14.141 84.2674C14.6752 86.2732 16.7253 87.4776 18.7323 86.9365L18.2177 85.0038ZM19.4512 82.8356C19.705 83.7889 19.1434 84.7542 18.2177 85.0038L18.7323 86.9365C20.7393 86.3954 21.9163 84.3208 21.3822 82.315L19.4512 82.8356ZM159.05 45.8982C159.585 47.9041 161.635 49.1085 163.642 48.5674L163.127 46.6347C162.201 46.8843 161.235 46.3309 160.982 45.3776L159.05 45.8982ZM161.7 41.2767C159.693 41.8178 158.516 43.8924 159.05 45.8982L160.982 45.3776C160.728 44.4243 161.289 43.459 162.215 43.2094L161.7 41.2767ZM166.292 43.9458C165.758 41.94 163.707 40.7356 161.7 41.2767L162.215 43.2094C163.141 42.9598 164.107 43.5132 164.361 44.4665L166.292 43.9458ZM163.642 48.5674C165.649 48.0262 166.826 45.9517 166.292 43.9458L164.361 44.4665C164.614 45.4198 164.053 46.3851 163.127 46.6347L163.642 48.5674ZM146.436 33.5875C145.51 33.8371 144.544 33.2837 144.29 32.3303L142.359 32.851C142.893 34.8568 144.943 36.0613 146.95 35.5201L146.436 33.5875ZM147.669 31.4193C147.923 32.3726 147.362 33.3379 146.436 33.5875L146.95 35.5201C148.957 34.979 150.134 32.9044 149.6 30.8986L147.669 31.4193ZM145.524 30.1621C146.449 29.9125 147.415 30.4659 147.669 31.4193L149.6 30.8986C149.066 28.8928 147.016 27.6883 145.009 28.2295L145.524 30.1621ZM144.29 32.3303C144.036 31.377 144.598 30.4117 145.524 30.1621L145.009 28.2295C143.002 28.7706 141.825 30.8452 142.359 32.851L144.29 32.3303Z" fill="white" mask="url(#path-1-outside-1_754_3120)"/>
<mask id="path-3-outside-2_754_3120" maskUnits="userSpaceOnUse" x="27.5916" y="54.7291" width="141.346" height="73.0913" fill="black">
<rect fill="white" x="27.5916" y="54.7291" width="141.346" height="73.0913"/>
<path fill-rule="evenodd" clip-rule="evenodd" d="M30.2095 96.0787C29.4391 93.1852 31.1391 90.2128 34.0067 89.4396C36.1858 88.8521 38.412 89.7035 39.6935 91.4159L59.7047 86.0204L71.4416 82.8558C72.9166 84.2345 74.5499 85.4543 76.3186 86.4852C82.5523 90.1181 89.958 91.1066 96.9067 89.2331C103.855 87.3595 109.778 82.7775 113.371 76.495C114.391 74.7123 115.199 72.8342 115.791 70.8981L125.095 68.3897L149.155 61.9025C149.635 60.0945 151.033 58.5885 152.955 58.0703C155.822 57.2971 158.772 59.016 159.542 61.9094C160.313 64.8029 158.613 67.7753 155.745 68.5485C153.566 69.136 151.34 68.2846 150.058 66.5723L126.501 72.9239C126.057 74.5645 125.504 76.1786 124.843 77.755L130.033 80.7799C130.986 81.3352 131.313 82.5638 130.764 83.5241L124.99 93.6196C124.441 94.5799 123.223 94.9083 122.27 94.3529L116.584 91.0389C116.371 90.9152 116.19 90.7581 116.043 90.5779C113.246 93.2588 110.053 95.4985 106.574 97.2132C106.983 97.472 107.3 97.88 107.434 98.3856L109.141 104.797C109.426 105.864 108.792 106.963 107.725 107.25L96.5749 110.257C95.5084 110.544 94.4134 109.912 94.1292 108.845L92.4219 102.433C92.2891 101.935 92.3568 101.429 92.5755 101.003C88.8992 101.263 85.2109 100.981 81.6271 100.172C81.5872 100.286 81.5365 100.397 81.4747 100.505L78.1968 106.236C77.6476 107.196 76.4299 107.525 75.4771 106.969L65.4602 101.132C64.5073 100.576 64.1802 99.3477 64.7294 98.3873L67.4307 93.6643C65.9187 92.5453 64.4965 91.3192 63.1736 89.9984L40.597 96.0856C40.1163 97.8936 38.7188 99.3996 36.7969 99.9178C33.9293 100.691 30.98 98.9722 30.2095 96.0787ZM38.0569 93.9629C37.6629 92.4833 36.1548 91.6044 34.6885 91.9997C33.2221 92.3951 32.3528 93.915 32.7468 95.3946C33.1408 96.8742 34.6489 97.7531 36.1152 97.3577C37.5816 96.9624 38.4509 95.4424 38.0569 93.9629ZM155.063 65.9884C153.597 66.3838 152.089 65.5048 151.695 64.0253C151.301 62.5457 152.17 61.0258 153.636 60.6304C155.103 60.235 156.611 61.114 157.005 62.5935C157.399 64.0731 156.53 65.593 155.063 65.9884Z"/>
</mask>
<path d="M39.6935 91.4159L38.8934 92.0175L39.2981 92.5582L39.9509 92.3822L39.6935 91.4159ZM59.7047 86.0204L59.4474 85.054L59.4474 85.054L59.7047 86.0204ZM71.4416 82.8558L72.1244 82.1233L71.7198 81.7451L71.1843 81.8895L71.4416 82.8558ZM76.3186 86.4852L75.8144 87.3505L75.8144 87.3505L76.3186 86.4852ZM113.371 76.495L114.238 76.9907L114.238 76.9907L113.371 76.495ZM115.791 70.8981L115.534 69.9318L114.998 70.0762L114.836 70.6073L115.791 70.8981ZM125.095 68.3897L124.837 67.4233L124.837 67.4233L125.095 68.3897ZM149.155 61.9025L149.412 62.8689L149.971 62.7181L150.12 62.1576L149.155 61.9025ZM152.955 58.0703L153.212 59.0366L152.955 58.0703ZM155.745 68.5485L156.002 69.5148L156.002 69.5148L155.745 68.5485ZM150.058 66.5723L150.858 65.9706L150.454 65.4299L149.801 65.6059L150.058 66.5723ZM126.501 72.9239L126.243 71.9576L125.687 72.1076L125.536 72.6647L126.501 72.9239ZM124.843 77.755L123.922 77.3696L123.582 78.1795L124.339 78.6203L124.843 77.755ZM130.033 80.7799L130.538 79.9145L130.538 79.9145L130.033 80.7799ZM130.764 83.5241L131.631 84.0198L131.631 84.0198L130.764 83.5241ZM124.99 93.6196L125.857 94.1153L125.857 94.1153L124.99 93.6196ZM122.27 94.3529L122.774 93.4876L122.774 93.4876L122.27 94.3529ZM116.584 91.0389L116.079 91.9043L116.079 91.9043L116.584 91.0389ZM116.043 90.5779L116.816 89.9424L116.134 89.1078L115.353 89.8558L116.043 90.5779ZM106.574 97.2132L106.134 96.3155L104.53 97.1061L106.039 98.0599L106.574 97.2132ZM107.434 98.3856L106.469 98.646L107.434 98.3856ZM109.141 104.797L110.107 104.537L109.141 104.797ZM94.1292 108.845L95.0947 108.584L94.1292 108.845ZM92.4219 102.433L91.4564 102.694L92.4219 102.433ZM92.5755 101.003L93.4641 101.458L94.2736 99.8793L92.5078 100.004L92.5755 101.003ZM81.6271 100.172L81.8492 99.1958L80.9812 99L80.6849 99.8416L81.6271 100.172ZM81.4747 100.505L82.3414 101.001L82.3414 101.001L81.4747 100.505ZM78.1968 106.236L77.3301 105.74L77.3301 105.74L78.1968 106.236ZM75.4771 106.969L74.9728 107.835L74.9728 107.835L75.4771 106.969ZM65.4602 101.132L65.9645 100.266L65.9645 100.266L65.4602 101.132ZM64.7294 98.3873L63.8627 97.8917L63.8627 97.8917L64.7294 98.3873ZM67.4307 93.6643L68.2974 94.16L68.7396 93.387L68.026 92.8589L67.4307 93.6643ZM63.1736 89.9984L63.8801 89.2887L63.4728 88.882L62.9163 89.0321L63.1736 89.9984ZM40.597 96.0856L40.3397 95.1193L39.7805 95.27L39.6315 95.8305L40.597 96.0856ZM36.7969 99.9178L37.0542 100.884L37.0542 100.884L36.7969 99.9178ZM34.6885 91.9997L34.9458 92.9661L34.6885 91.9997ZM38.0569 93.9629L37.0914 94.2232L37.0914 94.2232L38.0569 93.9629ZM32.7468 95.3946L31.7812 95.6549L32.7468 95.3946ZM155.063 65.9884L155.321 66.9547L155.321 66.9547L155.063 65.9884ZM153.636 60.6304L153.894 61.5967L153.894 61.5967L153.636 60.6304ZM33.7494 88.4733C30.3412 89.3923 28.3334 92.9193 29.244 96.339L31.1751 95.8184C30.5447 93.4512 31.9371 91.0334 34.2641 90.406L33.7494 88.4733ZM40.4937 90.8142C38.9784 88.7896 36.3399 87.7749 33.7494 88.4733L34.2641 90.406C36.0317 89.9294 37.8456 90.6175 38.8934 92.0175L40.4937 90.8142ZM59.4474 85.054L39.4362 90.4495L39.9509 92.3822L59.962 86.9867L59.4474 85.054ZM71.1843 81.8895L59.4474 85.054L59.962 86.9867L71.6989 83.8221L71.1843 81.8895ZM76.8229 85.6199C75.119 84.6268 73.5455 83.4517 72.1244 82.1233L70.7588 83.5883C72.2876 85.0174 73.9807 86.2819 75.8144 87.3505L76.8229 85.6199ZM96.6494 88.2667C89.9593 90.0705 82.8276 89.1194 76.8229 85.6199L75.8144 87.3505C82.2769 91.1169 89.9567 92.1426 97.164 90.1994L96.6494 88.2667ZM112.504 75.9993C109.043 82.0511 103.339 86.4629 96.6494 88.2667L97.164 90.1994C104.371 88.2561 110.513 83.5039 114.238 76.9907L112.504 75.9993ZM114.836 70.6073C114.265 72.4726 113.487 74.282 112.504 75.9993L114.238 76.9907C115.295 75.1426 116.133 73.1957 116.747 71.1889L114.836 70.6073ZM124.837 67.4233L115.534 69.9318L116.049 71.8644L125.352 69.356L124.837 67.4233ZM148.897 60.9362L124.837 67.4233L125.352 69.356L149.412 62.8689L148.897 60.9362ZM152.697 57.104C150.413 57.7199 148.758 59.5097 148.189 61.6474L150.12 62.1576C150.513 60.6793 151.653 59.4571 153.212 59.0366L152.697 57.104ZM160.508 61.6491C159.597 58.2294 156.106 56.185 152.697 57.104L153.212 59.0366C155.539 58.4092 157.946 59.8025 158.577 62.1698L160.508 61.6491ZM156.002 69.5148C159.41 68.5959 161.418 65.0688 160.508 61.6491L158.577 62.1698C159.207 64.537 157.815 66.9547 155.488 67.5822L156.002 69.5148ZM149.258 67.1739C150.773 69.1985 153.412 70.2133 156.002 69.5148L155.488 67.5822C153.72 68.0588 151.906 67.3707 150.858 65.9706L149.258 67.1739ZM126.758 73.8902L150.315 67.5386L149.801 65.6059L126.243 71.9576L126.758 73.8902ZM125.764 78.1404C126.442 76.5228 127.01 74.8665 127.465 73.1831L125.536 72.6647C125.104 74.2625 124.566 75.8345 123.922 77.3696L125.764 78.1404ZM130.538 79.9145L125.347 76.8897L124.339 78.6203L129.529 81.6452L130.538 79.9145ZM131.631 84.0198C132.453 82.5821 131.964 80.7459 130.538 79.9145L129.529 81.6452C130.008 81.9245 130.173 82.5455 129.897 83.0285L131.631 84.0198ZM125.857 94.1153L131.631 84.0198L129.897 83.0285L124.123 93.1239L125.857 94.1153ZM121.766 95.2183C123.198 96.0528 125.031 95.5585 125.857 94.1153L124.123 93.1239C123.85 93.6013 123.248 93.7637 122.774 93.4876L121.766 95.2183ZM116.079 91.9043L121.766 95.2183L122.774 93.4876L117.088 90.1736L116.079 91.9043ZM115.269 91.2135C115.491 91.4841 115.763 91.7196 116.079 91.9043L117.088 90.1736C116.98 90.1108 116.89 90.0321 116.816 89.9424L115.269 91.2135ZM107.013 98.111C110.585 96.3508 113.862 94.0517 116.733 91.3001L115.353 89.8558C112.63 92.4659 109.522 94.6463 106.134 96.3155L107.013 98.111ZM106.039 98.0599C106.244 98.1899 106.401 98.3926 106.469 98.646L108.4 98.1253C108.198 97.3674 107.722 96.7542 107.109 96.3666L106.039 98.0599ZM106.469 98.646L108.176 105.057L110.107 104.537L108.4 98.1253L106.469 98.646ZM108.176 105.057C108.318 105.591 108.001 106.14 107.468 106.284L107.982 108.217C109.582 107.785 110.533 106.138 110.107 104.537L108.176 105.057ZM107.468 106.284L96.3176 109.29L96.8322 111.223L107.982 108.217L107.468 106.284ZM96.3176 109.29C95.7843 109.434 95.2368 109.118 95.0947 108.584L93.1637 109.105C93.59 110.706 95.2325 111.654 96.8322 111.223L96.3176 109.29ZM95.0947 108.584L93.3874 102.173L91.4564 102.694L93.1637 109.105L95.0947 108.584ZM93.3874 102.173C93.3209 101.923 93.3543 101.672 93.4641 101.458L91.6869 100.547C91.3594 101.186 91.2573 101.946 91.4564 102.694L93.3874 102.173ZM81.4051 101.148C85.0834 101.978 88.8694 102.268 92.6432 102.001L92.5078 100.004C88.9291 100.257 85.3383 99.9829 81.8492 99.1958L81.4051 101.148ZM82.3414 101.001C82.4335 100.84 82.5094 100.673 82.5694 100.503L80.6849 99.8416C80.6649 99.8983 80.6394 99.9544 80.6079 100.01L82.3414 101.001ZM79.0635 106.732L82.3414 101.001L80.6079 100.01L77.3301 105.74L79.0635 106.732ZM74.9728 107.835C76.4048 108.669 78.2381 108.175 79.0635 106.732L77.3301 105.74C77.0571 106.218 76.455 106.38 75.9814 106.104L74.9728 107.835ZM64.9559 101.997L74.9728 107.835L75.9814 106.104L65.9645 100.266L64.9559 101.997ZM63.8627 97.8917C63.0404 99.3294 63.5294 101.166 64.9559 101.997L65.9645 100.266C65.4853 99.987 65.3199 99.3659 65.5961 98.883L63.8627 97.8917ZM66.564 93.1686L63.8627 97.8917L65.5961 98.883L68.2974 94.16L66.564 93.1686ZM62.4672 90.7081C63.8246 92.0633 65.2839 93.3214 66.8355 94.4698L68.026 92.8589C66.5534 91.7691 65.1684 90.5751 63.8801 89.2887L62.4672 90.7081ZM40.8544 97.0519L63.431 90.9647L62.9163 89.0321L40.3397 95.1193L40.8544 97.0519ZM37.0542 100.884C39.3386 100.268 40.9941 98.4784 41.5626 96.3407L39.6315 95.8305C39.2384 97.3088 38.099 98.531 36.5396 98.9515L37.0542 100.884ZM29.244 96.339C30.1546 99.7587 33.646 101.803 37.0542 100.884L36.5396 98.9515C34.2126 99.5789 31.8054 98.1856 31.1751 95.8184L29.244 96.339ZM34.9458 92.9661C35.8715 92.7165 36.8375 93.2699 37.0914 94.2232L39.0224 93.7025C38.4883 91.6967 36.4381 90.4923 34.4311 91.0334L34.9458 92.9661ZM33.7123 95.1343C33.4584 94.181 34.0201 93.2156 34.9458 92.9661L34.4311 91.0334C32.4242 91.5745 31.2471 93.6491 31.7812 95.6549L33.7123 95.1343ZM35.8579 96.3914C34.9322 96.641 33.9661 96.0876 33.7123 95.1343L31.7812 95.6549C32.3154 97.6607 34.3655 98.8652 36.3725 98.324L35.8579 96.3914ZM37.0914 94.2232C37.3452 95.1765 36.7836 96.1418 35.8579 96.3914L36.3725 98.324C38.3795 97.7829 39.5565 95.7084 39.0224 93.7025L37.0914 94.2232ZM150.729 64.2856C151.263 66.2914 153.314 67.4959 155.321 66.9547L154.806 65.0221C153.88 65.2717 152.914 64.7182 152.66 63.7649L150.729 64.2856ZM153.379 59.6641C151.372 60.2052 150.195 62.2798 150.729 64.2856L152.66 63.7649C152.406 62.8116 152.968 61.8463 153.894 61.5967L153.379 59.6641ZM157.97 62.3332C157.436 60.3274 155.386 59.1229 153.379 59.6641L153.894 61.5967C154.819 61.3471 155.786 61.9005 156.039 62.8539L157.97 62.3332ZM155.321 66.9547C157.328 66.4136 158.505 64.339 157.97 62.3332L156.039 62.8539C156.293 63.8072 155.732 64.7725 154.806 65.0221L155.321 66.9547Z" fill="white" mask="url(#path-3-outside-2_754_3120)"/>
</svg>
