<svg width="83" height="64" viewBox="0 0 83 64" fill="none" xmlns="http://www.w3.org/2000/svg">
<path d="M82.5 46.5261C82.5 69.1158 64.1448 87.4302 41.5 87.4302C18.8552 87.4302 0.5 69.1158 0.5 46.5261C0.5 23.9365 18.8552 5.62207 41.5 5.62207C64.1448 5.62207 82.5 23.9365 82.5 46.5261Z" stroke="white"/>
<path fill-rule="evenodd" clip-rule="evenodd" d="M58.436 39.5005C57.8751 41.704 56.6442 43.6722 54.7905 45.4043C52.9086 47.1627 50.3775 48.4418 47.2493 49.2781L42.4687 50.5561L46.0405 63.8553L35.3421 66.7153L24.9492 28.0183L40.4282 23.8803C43.4821 23.0639 46.2614 22.8843 48.7436 23.391C51.2108 23.8947 53.2809 24.9655 54.917 26.6194C56.5382 28.2583 57.6697 30.3159 58.3268 32.7627C58.9386 35.0406 58.9791 37.2889 58.4377 39.4935L58.436 39.5005ZM41.4207 49.9524L47.0278 48.4535C50.0605 47.6428 52.4531 46.4187 54.2056 44.7812C55.958 43.1437 57.0917 41.3135 57.6066 39.2903C58.1121 37.232 58.0767 35.1298 57.5003 32.9836C56.8766 30.6616 55.8125 28.74 54.308 27.2191C52.8034 25.6981 50.8914 24.7009 48.572 24.2274C46.2527 23.7539 43.6119 23.913 40.6496 24.7049L25.9972 28.622L35.9471 65.6697L44.9925 63.2516L41.4207 49.9524ZM44.191 40.6354C45.8058 40.2037 46.7458 39.5458 47.2162 38.7714C47.6943 37.9844 47.8231 36.9808 47.4697 35.6651C47.1164 34.3494 46.5019 33.5445 45.6934 33.1014C44.8979 32.6654 43.7541 32.5646 42.1394 32.9963L38.0465 34.0904L40.0981 41.7295L44.191 40.6354ZM44.4125 41.46C46.1405 40.9981 47.319 40.2494 47.948 39.2139C48.577 38.1784 48.6931 36.9218 48.2962 35.4442C47.8994 33.9665 47.1691 32.9361 46.1054 32.3532C45.0417 31.7702 43.6459 31.7097 41.9179 32.1717L36.9985 33.4868L39.4931 42.7751L44.4125 41.46Z" fill="white"/>
</svg>
