<svg width="88" height="63" viewBox="0 0 88 63" fill="none" xmlns="http://www.w3.org/2000/svg">
<circle cx="44" cy="44" r="43.5" stroke="white"/>
<path fill-rule="evenodd" clip-rule="evenodd" d="M37.2631 59.2059L30.956 53.6511L28.8058 61.4721L19.9154 63.8542L24.7618 48.2187L12.6279 37.5552L21.7103 35.1216L27.9181 40.5891L30.0269 32.8931L38.9173 30.5109L34.1132 46.0223L46.3454 56.7723L37.2631 59.2059ZM33.0726 46.3156L37.5644 31.8127L30.7643 33.6348L28.409 42.2305L21.4755 36.1237L14.5001 37.9927L25.8024 47.9255L21.2687 62.5524L28.0688 60.7303L30.4661 52.0107L37.4979 58.2038L44.4732 56.3348L33.0726 46.3156ZM70.1423 36.2406C69.7523 37.7761 68.8981 39.1383 67.6294 40.3264C66.3309 41.5426 64.5986 42.4141 62.4877 42.9797L59.6485 43.7405L62.0153 52.5736L54.2688 54.6493L47.2059 28.29L57.7916 25.4536C59.8518 24.9016 61.7486 24.7741 63.4581 25.1239C65.1518 25.4705 66.5864 26.211 67.7228 27.3625C68.8435 28.498 69.62 29.9189 70.0688 31.5937C70.4883 33.1592 70.5172 34.7106 70.1441 36.2332L70.1423 36.2406ZM58.5374 43.099L62.2529 42.1034C64.2626 41.5649 65.848 40.7519 67.0092 39.6643C68.1705 38.5767 68.9217 37.3611 69.263 36.0173C69.5979 34.6502 69.5744 33.254 69.1925 31.8285C68.7792 30.2862 68.0741 29.01 67.0771 27.9998C66.0801 26.9896 64.8131 26.3272 63.2762 26.0127C61.7393 25.6982 59.9893 25.8039 58.0264 26.3299L48.317 28.9315L54.9103 53.5382L60.9042 51.9321L58.5374 43.099ZM60.2851 36.5821C61.3101 36.3074 61.8382 35.9066 62.0868 35.4963C62.3436 35.0726 62.434 34.5068 62.2171 33.6976C62.0003 32.8883 61.6391 32.4435 61.2049 32.2049C60.7844 31.9739 60.1266 31.8909 59.1017 32.1655L56.7181 32.8042L57.9015 37.2208L60.2851 36.5821ZM60.5199 37.4584C61.6649 37.1516 62.4458 36.6543 62.8627 35.9666C63.2795 35.2788 63.3564 34.4442 63.0934 33.4628C62.8304 32.4813 62.3465 31.797 61.6417 31.4098C60.9368 31.0226 60.0119 30.9824 58.8669 31.2892L55.607 32.1627L57.26 38.3319L60.5199 37.4584Z" fill="white"/>
</svg>
