<svg width="124" height="117" viewBox="0 0 124 117" fill="none" xmlns="http://www.w3.org/2000/svg">
<path d="M81.9875 10.1205C82.879 10.489 83.6411 11.1137 84.1774 11.9155C84.7137 12.7174 85.0001 13.6603 85.0002 14.625V39H109.375C110.341 38.9983 111.285 39.2832 112.088 39.8188C112.891 40.3543 113.518 41.1163 113.887 42.0082C114.257 42.9001 114.354 43.8816 114.165 44.8284C113.976 45.7752 113.51 46.6447 112.827 47.3265L93.3267 66.8265C92.8732 67.2789 92.3349 67.6375 91.7426 67.8817C91.1504 68.126 90.5158 68.2511 89.8752 68.25H62.6435L55.4285 75.4747C55.814 76.9201 55.8622 78.4348 55.5692 79.9018C55.2762 81.3688 54.6499 82.7488 53.7386 83.9352C52.8274 85.1216 51.6556 86.0827 50.3138 86.7441C48.9721 87.4056 47.4962 87.7497 46.0002 87.75C43.4144 87.75 40.9344 86.7227 39.1059 84.8943C37.2774 83.0658 36.2502 80.5858 36.2502 78L36.26 77.5515C36.3268 76.095 36.7195 74.6721 37.409 73.3875C38.0985 72.1029 39.0674 70.9893 40.2442 70.1286C41.4211 69.268 42.7759 68.6822 44.2091 68.4145C45.6423 68.1467 47.1173 68.2038 48.5255 68.5815L55.7502 61.3567V34.125C55.7491 33.4844 55.8742 32.8498 56.1185 32.2576C56.3627 31.6653 56.7213 31.127 57.1737 30.6735L76.6737 11.1735C77.356 10.4921 78.225 10.0284 79.1709 9.84098C80.1167 9.65354 81.0969 9.75081 81.9875 10.1205V10.1205ZM87.857 58.5L97.607 48.75H80.1252C78.8323 48.75 77.5923 48.2364 76.6781 47.3221C75.7638 46.4079 75.2502 45.1679 75.2502 43.875V26.3932L65.5002 36.1432V58.5H87.857ZM103.964 69.966C105.646 82.1061 103.473 94.468 97.7511 105.307C92.0293 116.145 83.0478 124.913 72.0746 130.372C61.1014 135.831 48.6908 137.706 36.5947 135.732C24.4986 133.757 13.3281 128.034 4.65997 119.369C-4.00812 110.705 -9.7359 99.5362 -11.7148 87.4409C-13.6937 75.3456 -11.8237 62.9342 -6.3689 51.9589C-0.914068 40.9836 7.8501 31.9987 18.6864 26.2726C29.5226 20.5465 41.8837 18.3685 54.0245 20.046L50.2902 23.7802C48.7447 25.3259 47.5653 27.1983 46.8387 29.2597L46.0002 29.25C36.323 29.2514 26.8651 32.133 18.8311 37.5277C10.797 42.9224 4.55029 50.5862 0.886448 59.543C-2.7774 68.4999 -3.6926 78.3445 -1.7426 87.8233C0.207393 97.302 4.93434 105.986 11.8363 112.769C18.7382 119.552 27.5028 124.128 37.014 125.913C46.5251 127.699 56.3524 126.613 65.2444 122.794C74.1363 118.975 81.6906 112.597 86.9451 104.47C92.1996 96.3437 94.9167 86.8373 94.7502 77.1615C96.8038 76.4352 98.6692 75.2593 100.21 73.7197L103.954 69.966H103.964ZM46.0002 43.875C39.2509 43.875 32.6532 45.8764 27.0414 49.6261C21.4296 53.3758 17.0557 58.7054 14.4728 64.9409C11.89 71.1764 11.2142 78.0378 12.5309 84.6574C13.8476 91.277 17.0977 97.3575 21.8702 102.13C26.6427 106.902 32.7232 110.153 39.3428 111.469C45.9624 112.786 52.8238 112.11 59.0593 109.527C65.2948 106.945 70.6244 102.571 74.3741 96.9588C78.1238 91.347 80.1252 84.7493 80.1252 78H70.3752C70.3752 82.8209 68.9457 87.5336 66.2673 91.542C63.5889 95.5504 59.7821 98.6747 55.3281 100.52C50.8742 102.364 45.9732 102.847 41.2449 101.907C36.5166 100.966 32.1734 98.6446 28.7645 95.2357C25.3556 91.8268 23.0341 87.4836 22.0936 82.7553C21.1531 78.027 21.6358 73.126 23.4807 68.6721C25.3255 64.2181 28.4497 60.4113 32.4582 57.7329C36.4666 55.0546 41.1793 53.625 46.0002 53.625V43.875Z" fill="#DFDFDF"/>
</svg>
