<svg width="32" height="32" viewBox="0 0 32 32" fill="none" xmlns="http://www.w3.org/2000/svg">
<path d="M28 25.6295V16.3536C28.0001 15.7083 27.8667 15.0697 27.6082 14.477C27.3497 13.8844 26.9713 13.3501 26.4964 12.9069L17.6488 4.64797C17.2032 4.23185 16.6132 4 16 4C15.3868 4 14.7968 4.23185 14.3512 4.64797L5.5036 12.9069C5.02867 13.3501 4.65034 13.8844 4.3918 14.477C4.13325 15.0697 3.99993 15.7083 4 16.3536V25.6295C4 26.2582 4.25286 26.8611 4.70294 27.3057C5.15303 27.7502 5.76348 28 6.4 28H25.6C26.2365 28 26.847 27.7502 27.2971 27.3057C27.7471 26.8611 28 26.2582 28 25.6295Z" stroke="#676767" stroke-width="2" stroke-linecap="round" stroke-linejoin="round"/>
</svg>
