<svg width="71" height="62" viewBox="0 0 71 62" fill="none" xmlns="http://www.w3.org/2000/svg">
<path d="M39.3819 4.71288C38.5893 4.65436 37.7948 4.62505 37 4.625V0C37.909 0.000443203 38.8176 0.0343829 39.7241 0.10175L39.3819 4.71288ZM48.6504 6.79413C47.1678 6.22203 45.6452 5.75983 44.0948 5.41125L45.1076 0.89725C46.879 1.295 48.6226 1.82225 50.3154 2.479L48.6504 6.79413ZM54.9866 10.0779C54.3254 9.63688 53.6481 9.22035 52.9562 8.82913L55.2364 4.80538C56.8177 5.7014 58.3311 6.71237 59.7642 7.83013L56.9199 11.4793C56.2928 10.9901 55.648 10.5242 54.9866 10.0825V10.0779ZM63.4689 18.3566C62.554 17.0569 61.5446 15.8264 60.4487 14.6751L63.7972 11.4839C65.046 12.802 66.2022 14.2126 67.2521 15.6926L63.4689 18.3566ZM66.9099 24.6096C66.6063 23.8764 66.2762 23.1544 65.9201 22.4451L70.0502 20.3639C70.867 21.9876 71.5627 23.6696 72.1315 25.3959L67.7377 26.8435C67.4892 26.089 67.2131 25.3439 66.9099 24.6096ZM69.3611 36.2045C69.3237 34.6151 69.1691 33.0306 68.8986 31.4639L73.4542 30.6776C73.7641 32.4629 73.9445 34.2759 73.9907 36.0889L69.3657 36.2045H69.3611ZM68.7552 43.3178C68.9079 42.5315 69.0327 41.7499 69.1299 40.959L73.7225 41.5279C73.5004 43.3323 73.1448 45.1179 72.6587 46.8698L68.2002 45.6349C68.413 44.8718 68.598 44.0994 68.7552 43.3178ZM64.3522 54.3206C65.2032 52.9794 65.9525 51.5734 66.6 50.1211L70.8272 51.9943C70.0872 53.6593 69.2316 55.2595 68.2604 56.795L64.3522 54.3206ZM59.8937 59.8938C60.458 59.3295 60.9991 58.7468 61.5125 58.1455L65.0182 61.1656C64.4246 61.854 63.8059 62.5204 63.1636 63.1636L59.8937 59.8938Z" fill="#FF8C38" fill-opacity="0.2"/>
<path d="M36.9998 4.625C31.6759 4.62539 26.4342 5.93872 21.739 8.44867C17.0439 10.9586 13.0402 14.5877 10.0826 19.0145C7.12493 23.4413 5.30465 28.5292 4.78295 33.8275C4.26125 39.1258 5.05423 44.471 7.09167 49.3897C9.1291 54.3083 12.3481 58.6486 16.4635 62.0261C20.579 65.4036 25.4638 67.714 30.6854 68.7528C35.9071 69.7915 41.3043 69.5266 46.399 67.9813C51.4937 66.436 56.1288 63.6581 59.8936 59.8937L63.1634 63.1636C58.861 67.4685 53.5631 70.6456 47.7392 72.4136C41.9154 74.1816 35.7454 74.4858 29.7758 73.2992C23.8063 72.1127 18.2216 69.4721 13.5166 65.6113C8.81154 61.7505 5.1314 56.7889 2.80225 51.1659C0.473092 45.5429 -0.433164 39.4322 0.163774 33.3752C0.760713 27.3183 2.84241 21.5021 6.22444 16.442C9.60646 11.3818 14.1844 7.23401 19.5526 4.36601C24.9208 1.49802 30.9135 -0.00161289 36.9998 1.30174e-06V4.625Z" fill="#FF8C38" fill-opacity="0.2"/>
<path d="M34.6875 13.875C35.3008 13.875 35.889 14.1186 36.3227 14.5523C36.7564 14.986 37 15.5742 37 16.1875V40.2838L52.022 48.8677C52.539 49.1797 52.9136 49.6814 53.0655 50.2658C53.2175 50.8502 53.1349 51.4709 52.8353 51.9952C52.5357 52.5194 52.0429 52.9058 51.4623 53.0715C50.8817 53.2373 50.2592 53.1693 49.728 52.8823L33.5405 43.6322C33.1866 43.4301 32.8924 43.1379 32.6877 42.7854C32.483 42.4329 32.3751 42.0326 32.375 41.625V16.1875C32.375 15.5742 32.6186 14.986 33.0523 14.5523C33.486 14.1186 34.0742 13.875 34.6875 13.875Z" fill="#FF8C38" fill-opacity="0.2"/>
</svg>
