<svg width="68" height="63" viewBox="0 0 68 63" fill="none" xmlns="http://www.w3.org/2000/svg">
<rect x="3.98242" y="3.07434" width="65.0392" height="65.0392" rx="32.5196" stroke="#FF8C38" stroke-opacity="0.2" stroke-width="6"/>
<path d="M48.7958 31.0267C48.7958 32.5856 48.4396 34.0167 47.7273 35.3201C47.015 36.5979 45.9212 37.6329 44.4457 38.4252C42.9702 39.2174 41.1386 39.6135 38.9508 39.6135H34.906V49.2737H28.3809V22.3632H38.9508C41.0877 22.3632 42.8939 22.7337 44.3694 23.4748C45.8448 24.216 46.9514 25.2382 47.6892 26.5416C48.4269 27.8449 48.7958 29.34 48.7958 31.0267ZM38.4548 34.4001C39.7013 34.4001 40.6298 34.1062 41.2404 33.5184C41.8509 32.9306 42.1562 32.1 42.1562 31.0267C42.1562 29.9533 41.8509 29.1227 41.2404 28.535C40.6298 27.9472 39.7013 27.6533 38.4548 27.6533H34.906V34.4001H38.4548Z" fill="#FF8C38" fill-opacity="0.2"/>
</svg>
