<svg width="89" height="73" viewBox="0 0 89 73" fill="none" xmlns="http://www.w3.org/2000/svg">
<path d="M77.4528 6.87676C78.0586 7.12715 78.5764 7.55164 78.9408 8.09648C79.3052 8.64133 79.4998 9.28204 79.4999 9.93751V26.5H96.0624C96.7184 26.4988 97.36 26.6925 97.9058 27.0564C98.4517 27.4203 98.8772 27.9381 99.1284 28.5441C99.3796 29.1501 99.4452 29.817 99.3169 30.4604C99.1886 31.1037 98.8721 31.6945 98.4077 32.1578L85.1577 45.4078C84.8495 45.7152 84.4837 45.9588 84.0813 46.1248C83.6789 46.2908 83.2477 46.3758 82.8124 46.375H64.3088L59.4063 51.2841C59.6683 52.2663 59.701 53.2955 59.5019 54.2923C59.3028 55.2891 58.8772 56.2268 58.2581 57.0329C57.6389 57.8391 56.8427 58.4921 55.931 58.9415C55.0192 59.391 54.0164 59.6248 52.9999 59.625C51.2429 59.625 49.5578 58.927 48.3153 57.6846C47.0729 56.4422 46.3749 54.7571 46.3749 53L46.3815 52.6953C46.427 51.7056 46.6938 50.7388 47.1623 49.8659C47.6308 48.993 48.2891 48.2363 49.0888 47.6515C49.8884 47.0667 50.8091 46.6687 51.7829 46.4868C52.7567 46.3048 53.7589 46.3436 54.7158 46.6003L59.6249 41.6911V23.1875C59.6241 22.7522 59.7092 22.321 59.8751 21.9186C60.0411 21.5162 60.2848 21.1504 60.5922 20.8423L73.8422 7.59226C74.3058 7.12929 74.8963 6.8142 75.539 6.68684C76.1816 6.55948 76.8477 6.62558 77.4528 6.87676V6.87676ZM81.441 39.75L88.066 33.125H76.1874C75.3089 33.125 74.4663 32.776 73.8451 32.1548C73.2239 31.5336 72.8749 30.691 72.8749 29.8125V17.9339L66.2499 24.5589V39.75H81.441ZM92.3855 47.541C93.5286 55.7901 92.0519 64.1898 88.164 71.5544C84.2761 78.9191 78.1733 84.8766 70.7172 88.586C63.261 92.2954 54.8281 93.5693 46.609 92.2279C38.3899 90.8864 30.7996 86.9975 24.9098 81.1099C19.0199 75.2223 15.1279 67.6336 13.7833 59.415C12.4387 51.1964 13.7093 42.763 17.4158 35.3054C21.1223 27.8478 27.0774 21.7427 34.4405 17.8519C41.8036 13.9611 50.2028 12.4812 58.4523 13.621L55.9149 16.1584C54.8648 17.2086 54.0634 18.4809 53.5697 19.8816L52.9999 19.875C46.4244 19.876 39.9979 21.834 34.5388 25.4996C29.0798 29.1652 24.8352 34.3727 22.3457 40.4587C19.8562 46.5448 19.2343 53.2341 20.5593 59.6748C21.8843 66.1155 25.0962 72.0161 29.786 76.6252C34.4758 81.2343 40.4312 84.3434 46.8939 85.5565C53.3566 86.7695 60.0341 86.0317 66.0761 83.437C72.118 80.8422 77.251 76.508 80.8214 70.9862C84.3918 65.4643 86.238 59.0048 86.1249 52.4303C87.5203 51.9367 88.7878 51.1377 89.8349 50.0916L92.3789 47.541H92.3855ZM52.9999 29.8125C48.4139 29.8125 43.9308 31.1724 40.1176 33.7203C36.3045 36.2682 33.3325 39.8896 31.5775 44.1265C29.8225 48.3635 29.3633 53.0257 30.258 57.5237C31.1527 62.0216 33.3611 66.1532 36.6039 69.396C39.8467 72.6389 43.9783 74.8473 48.4763 75.742C52.9742 76.6367 57.6364 76.1775 61.8734 74.4225C66.1104 72.6675 69.7317 69.6955 72.2796 65.8823C74.8275 62.0691 76.1874 57.5861 76.1874 53H69.5624C69.5624 56.2758 68.591 59.4779 66.7711 62.2016C64.9512 64.9253 62.3645 67.0482 59.3381 68.3018C56.3117 69.5553 52.9815 69.8833 49.7687 69.2443C46.5559 68.6052 43.6048 67.0278 41.2885 64.7115C38.9722 62.3952 37.3947 59.444 36.7557 56.2312C36.1166 53.0184 36.4446 49.6882 37.6982 46.6618C38.9517 43.6354 41.0746 41.0487 43.7983 39.2288C46.522 37.4089 49.7242 36.4375 52.9999 36.4375V29.8125Z" fill="#FF8C38" fill-opacity="0.2"/>
</svg>
