<svg width="63" height="59" viewBox="0 0 63 59" fill="none" xmlns="http://www.w3.org/2000/svg">
<g clip-path="url(#clip0_864_3118)">
<path d="M28.3963 4.71288C27.6037 4.65436 26.8092 4.62505 26.0144 4.625V0C26.9234 0.000443203 27.832 0.0343829 28.7385 0.10175L28.3963 4.71288ZM37.6648 6.79413C36.1822 6.22203 34.6596 5.75983 33.1092 5.41125L34.122 0.89725C35.8934 1.295 37.637 1.82225 39.3298 2.479L37.6648 6.79413V6.79413ZM44.001 10.0779C43.3398 9.63688 42.6625 9.22035 41.9707 8.82913L44.2508 4.80538C45.8321 5.7014 47.3455 6.71237 48.7787 7.83013L45.9343 11.4793C45.3072 10.9901 44.6624 10.5242 44.001 10.0825V10.0779ZM52.4833 18.3566C51.5684 17.0569 50.559 15.8264 49.4632 14.6751L52.8117 11.4839C54.0604 12.802 55.2167 14.2126 56.2665 15.6926L52.4833 18.3566V18.3566ZM55.9243 24.6096C55.6207 23.8764 55.2906 23.1544 54.9345 22.4451L59.0647 20.3639C59.8814 21.9876 60.5771 23.6696 61.1459 25.3959L56.7522 26.8435C56.5036 26.089 56.2275 25.3439 55.9243 24.6096V24.6096ZM58.3755 36.2045C58.3381 34.6151 58.1835 33.0306 57.913 31.4639L62.4687 30.6776C62.7785 32.4629 62.9589 34.2759 63.0052 36.0889L58.3802 36.2045H58.3755ZM57.7697 43.3178C57.9223 42.5315 58.0471 41.7499 58.1443 40.959L62.7369 41.5279C62.5148 43.3323 62.1592 45.1178 61.6732 46.8698L57.2147 45.6349C57.4274 44.8718 57.6124 44.0994 57.7697 43.3178V43.3178ZM53.3666 54.3206C54.2176 52.9794 54.9669 51.5734 55.6144 50.1211L59.8417 51.9943C59.1017 53.6593 58.246 55.2595 57.2748 56.795L53.3666 54.3206ZM48.9082 59.8938C49.4724 59.3295 50.0135 58.7468 50.5269 58.1455L54.0326 61.1656C53.439 61.854 52.8203 62.5204 52.178 63.1636L48.9082 59.8938V59.8938Z" fill="white"/>
<path d="M26.0144 4.625C20.6905 4.62539 15.4488 5.93872 10.7537 8.44867C6.05855 10.9586 2.05485 14.5877 -0.902788 19.0145C-3.86042 23.4413 -5.6807 28.5292 -6.2024 33.8275C-6.7241 39.1258 -5.93112 44.471 -3.89368 49.3897C-1.85625 54.3083 1.36274 58.6486 5.47818 62.0261C9.59362 65.4036 14.4785 67.714 19.7001 68.7528C24.9217 69.7915 30.3189 69.5266 35.4136 67.9813C40.5084 66.436 45.1434 63.6581 48.9082 59.8937L52.1781 63.1636C47.8756 67.4685 42.5777 70.6456 36.7539 72.4136C30.93 74.1816 24.76 74.4858 18.7905 73.2992C12.821 72.1127 7.23629 69.4721 2.53124 65.6113C-2.17381 61.7505 -5.85395 56.7889 -8.18311 51.1659C-10.5123 45.5429 -11.4185 39.4322 -10.8216 33.3752C-10.2246 27.3183 -8.14294 21.5021 -4.76092 16.442C-1.37889 11.3818 3.19902 7.23401 8.56722 4.36601C13.9354 1.49802 19.9282 -0.00161289 26.0144 1.30174e-06V4.625Z" fill="white"/>
<path d="M23.7019 13.875C24.3152 13.875 24.9034 14.1186 25.3371 14.5523C25.7708 14.986 26.0144 15.5742 26.0144 16.1875V40.2838L41.0364 48.8677C41.5534 49.1797 41.928 49.6814 42.08 50.2658C42.2319 50.8502 42.1493 51.4709 41.8497 51.9952C41.5501 52.5194 41.0573 52.9057 40.4767 53.0715C39.8961 53.2373 39.2736 53.1693 38.7424 52.8823L22.5549 43.6323C22.201 43.4301 21.9068 43.1379 21.7021 42.7854C21.4974 42.4329 21.3895 42.0326 21.3894 41.625V16.1875C21.3894 15.5742 21.633 14.986 22.0667 14.5523C22.5004 14.1186 23.0886 13.875 23.7019 13.875V13.875Z" fill="white"/>
</g>
<defs>
<clipPath id="clip0_864_3118">
<rect width="63" height="59" fill="white"/>
</clipPath>
</defs>
</svg>
