<svg width="69" height="61" viewBox="0 0 69 61" fill="none" xmlns="http://www.w3.org/2000/svg">
<g clip-path="url(#clip0_865_3119)">
<path d="M30 73.125C20.9495 73.125 12.2697 69.5297 5.86998 63.13C-0.529698 56.7303 -4.125 48.0505 -4.125 39C-4.125 29.9495 -0.529698 21.2697 5.86998 14.87C12.2697 8.4703 20.9495 4.875 30 4.875C39.0505 4.875 47.7303 8.4703 54.13 14.87C60.5297 21.2697 64.125 29.9495 64.125 39C64.125 48.0505 60.5297 56.7303 54.13 63.13C47.7303 69.5297 39.0505 73.125 30 73.125ZM30 78C40.3434 78 50.2632 73.8911 57.5772 66.5772C64.8911 59.2632 69 49.3434 69 39C69 28.6566 64.8911 18.7368 57.5772 11.4228C50.2632 4.10892 40.3434 0 30 0C19.6566 0 9.73676 4.10892 2.42284 11.4228C-4.89108 18.7368 -9 28.6566 -9 39C-9 49.3434 -4.89108 59.2632 2.42284 66.5772C9.73676 73.8911 19.6566 78 30 78Z" fill="white"/>
<path d="M44.4788 24.2288C44.444 24.2624 44.4115 24.2983 44.3812 24.336L27.4504 45.9079L17.247 35.6996C16.5539 35.0538 15.6372 34.7022 14.69 34.7189C13.7427 34.7356 12.839 35.1194 12.1691 35.7892C11.4992 36.4591 11.1155 37.3629 11.0988 38.3101C11.0821 39.2573 11.4337 40.174 12.0795 40.8672L24.9788 53.7713C25.3262 54.1181 25.7401 54.3915 26.1955 54.5749C26.6509 54.7584 27.1386 54.8483 27.6295 54.8392C28.1204 54.8301 28.6045 54.7222 29.0528 54.522C29.5011 54.3218 29.9045 54.0333 30.2389 53.6738L49.6999 29.3475C50.3625 28.652 50.7248 27.7236 50.7085 26.7631C50.6921 25.8026 50.2984 24.8871 49.6124 24.2146C48.9264 23.5421 48.0033 23.1666 47.0427 23.1692C46.082 23.1719 45.161 23.5525 44.4788 24.2288Z" fill="white"/>
</g>
<defs>
<clipPath id="clip0_865_3119">
<rect width="69" height="61" fill="white"/>
</clipPath>
</defs>
</svg>
